<svg width="46" height="20" viewBox="0 0 46 20" fill="none" xmlns="http://www.w3.org/2000/svg">
<path d="M13.6296 11.1111C9.54074 9.33333 2.83951 8.51852 0 8.33333C1.1358 5 12.4938 6.66667 16.4691 7.22222C20.4444 7.77778 25.5556 5 24.9877 4.44444C24.4198 3.88889 24.4198 1.66667 26.1235 1.66667C27.4864 1.66667 26.6914 3.88889 26.1235 5C29.1523 6.11111 36.0049 8.33333 39.1852 8.33333C43.1605 8.33333 43.7284 6.11111 43.7284 3.88889C43.7284 1.66667 40.321 1.66667 38.6173 2.22222C36.9136 2.77778 38.0494 5.55556 39.1852 6.11111C40.0938 6.55556 40.321 5.55556 40.321 5L39.7531 3.88889C40.1317 3.7037 41.0025 3.44444 41.4568 3.88889C41.9111 4.33333 41.6461 5.92593 41.4568 6.66667C40.1317 7.22222 37.2543 7.66667 36.3457 5C35.2099 1.66667 39.1852 0 40.8889 0C42.5926 0 46 1.11111 46 5C46 8.88889 40.8889 10.5556 39.7531 10.5556C38.8444 10.5556 32.1811 13.8889 28.963 15.5556C29.7202 16.4815 31.2346 18.4444 31.2346 18.8889C31.2346 19.4444 27.2593 20 26.1235 20C24.9877 20 21.0123 19.4444 20.4444 18.8889C19.9901 18.4444 21.7695 16.8519 22.716 16.1111C21.3909 15.1852 17.7185 12.8889 13.6296 11.1111Z" fill="white"/>
</svg>
