<svg width="9" height="16" viewBox="0 0 9 16" fill="none" xmlns="http://www.w3.org/2000/svg">
<path d="M7 7.01385C6.44772 7.01385 6 7.46157 6 8.01385C6 8.56614 6.44772 9.01385 7 9.01385L7 7.01385ZM8.70711 8.72096C9.09763 8.33044 9.09763 7.69727 8.70711 7.30675L2.34315 0.942786C1.95262 0.552262 1.31946 0.552262 0.928933 0.942786C0.538409 1.33331 0.538409 1.96648 0.928933 2.357L6.58579 8.01385L0.928931 13.6707C0.538407 14.0612 0.538407 14.6944 0.928931 15.0849C1.31946 15.4754 1.95262 15.4754 2.34314 15.0849L8.70711 8.72096ZM7 9.01385L8 9.01386L8 7.01386L7 7.01385L7 9.01385Z" fill="#111111"/>
</svg>
