<svg width="10" height="16" viewBox="0 0 10 16" fill="none" xmlns="http://www.w3.org/2000/svg">
<path d="M2.91663 9.01389C3.46891 9.01389 3.91663 8.56617 3.91663 8.01389C3.91663 7.4616 3.46891 7.01389 2.91663 7.01389V9.01389ZM1.20952 7.30678C0.818995 7.6973 0.818995 8.33047 1.20952 8.72099L7.57348 15.085C7.964 15.4755 8.59717 15.4755 8.98769 15.085C9.37822 14.6944 9.37822 14.0613 8.98769 13.6707L3.33084 8.01389L8.98769 2.35703C9.37822 1.96651 9.37822 1.33334 8.98769 0.942818C8.59717 0.552293 7.964 0.552293 7.57348 0.942818L1.20952 7.30678ZM2.91663 7.01389H1.91663L1.91663 9.01389H2.91663V7.01389Z" fill="#111111"/>
</svg>
