<svg width="32" height="32" viewBox="0 0 32 32" fill="none" xmlns="http://www.w3.org/2000/svg">
<path d="M17.5597 2.6665H7.99967C6.53301 2.6665 5.33301 3.8665 5.33301 5.33317V26.6665C5.33301 28.1332 6.53301 29.3332 7.99967 29.3332H23.9997C25.4663 29.3332 26.6663 28.1332 26.6663 26.6665V11.7732C26.6663 11.0665 26.3863 10.3865 25.8797 9.89317L19.4397 3.45317C18.9463 2.9465 18.2663 2.6665 17.5597 2.6665ZM15.9997 13.3332C17.4663 13.3332 18.6663 14.5332 18.6663 15.9998C18.6663 17.4665 17.4663 18.6665 15.9997 18.6665C14.533 18.6665 13.333 17.4665 13.333 15.9998C13.333 14.5332 14.533 13.3332 15.9997 13.3332ZM21.333 23.9998H10.6663V23.2398C10.6663 22.1598 11.3063 21.1998 12.293 20.7732C13.4621 20.2629 14.724 19.9995 15.9997 19.9995C17.2753 19.9995 18.5372 20.2629 19.7063 20.7732C20.1894 20.9796 20.6011 21.3235 20.8903 21.7621C21.1795 22.2006 21.3335 22.7145 21.333 23.2398V23.9998Z" fill="#111111"/>
</svg>
