<svg width="32" height="32" viewBox="0 0 32 32" fill="none" xmlns="http://www.w3.org/2000/svg">
<path d="M13.6667 17.3334C13.6667 17.7754 13.4911 18.1993 13.1785 18.5119C12.866 18.8244 12.442 19 12 19C11.558 19 11.1341 18.8244 10.8215 18.5119C10.5089 18.1993 10.3334 17.7754 10.3334 17.3334C10.3334 16.8913 10.5089 16.4674 10.8215 16.1548C11.1341 15.8423 11.558 15.6667 12 15.6667C12.442 15.6667 12.866 15.8423 13.1785 16.1548C13.4911 16.4674 13.6667 16.8913 13.6667 17.3334ZM20 15.6667C19.558 15.6667 19.1341 15.8423 18.8215 16.1548C18.5089 16.4674 18.3334 16.8913 18.3334 17.3334C18.3334 17.7754 18.5089 18.1993 18.8215 18.5119C19.1341 18.8244 19.558 19 20 19C20.442 19 20.866 18.8244 21.1785 18.5119C21.4911 18.1993 21.6667 17.7754 21.6667 17.3334C21.6667 16.8913 21.4911 16.4674 21.1785 16.1548C20.866 15.8423 20.442 15.6667 20 15.6667ZM29.3334 16C29.3334 23.36 23.36 29.3334 16 29.3334C8.64002 29.3334 2.66669 23.36 2.66669 16C2.66669 8.64002 8.64002 2.66669 16 2.66669C23.36 2.66669 29.3334 8.64002 29.3334 16ZM26.6667 16C26.6667 14.96 26.5067 13.96 26.2267 13.0134C25.2934 13.2134 24.3334 13.3334 23.3334 13.3334C21.3515 13.3338 19.3945 12.8924 17.6046 12.0413C15.8148 11.1902 14.2372 9.95085 12.9867 8.41335C12.2866 10.1057 11.2459 11.6359 9.92927 12.9089C8.61265 14.182 7.04827 15.1706 5.33335 15.8134C5.34669 15.8667 5.33335 15.9334 5.33335 16C5.33335 21.88 10.12 26.6667 16 26.6667C21.88 26.6667 26.6667 21.88 26.6667 16Z" fill="#111111"/>
</svg>
