<svg width="32" height="32" viewBox="0 0 32 32" fill="none" xmlns="http://www.w3.org/2000/svg">
<path d="M9.33331 24C7.86665 24 6.67998 25.2 6.67998 26.6667C6.67998 28.1334 7.86665 29.3334 9.33331 29.3334C10.8 29.3334 12 28.1334 12 26.6667C12 25.2 10.8 24 9.33331 24ZM1.33331 2.66669V5.33335H3.99998L8.79998 15.4534L6.99998 18.72C6.78665 19.0934 6.66665 19.5334 6.66665 20C6.66665 21.4667 7.86665 22.6667 9.33331 22.6667H25.3333V20H9.89331C9.70665 20 9.55998 19.8534 9.55998 19.6667L9.59998 19.5067L10.8 17.3334H20.7333C21.7333 17.3334 22.6133 16.7867 23.0666 15.96L27.84 7.30669C27.9466 7.12002 28 6.89335 28 6.66669C28 5.93335 27.4 5.33335 26.6666 5.33335H6.94665L5.69331 2.66669H1.33331ZM22.6666 24C21.2 24 20.0133 25.2 20.0133 26.6667C20.0133 28.1334 21.2 29.3334 22.6666 29.3334C24.1333 29.3334 25.3333 28.1334 25.3333 26.6667C25.3333 25.2 24.1333 24 22.6666 24Z" fill="#111111"/>
</svg>
